<?xml version="1.0" encoding="UTF-8" standalone="no" ?>
<!DOCTYPE svg PUBLIC "-//W3C//DTD SVG 1.1//EN" "http://www.w3.org/Graphics/SVG/1.1/DTD/svg11.dtd">
<svg xmlns="http://www.w3.org/2000/svg" xmlns:xlink="http://www.w3.org/1999/xlink" version="1.1" width="1080" height="1080" viewBox="0 0 1080 1080" xml:space="preserve">
<desc>Created with Fabric.js 5.2.4</desc>
<defs>
</defs>
<rect x="0" y="0" width="100%" height="100%" fill="transparent"></rect>
<g transform="matrix(1 0 0 1 540 540)" id="4a2197a8-51c2-4027-bfd6-6a4ddd3093e8"  >
</g>
<g transform="matrix(1 0 0 1 540 540)" id="0488c0c9-08a2-47f2-a031-22fefd8873e8"  >
<rect style="stroke: none; stroke-width: 1; stroke-dasharray: none; stroke-linecap: butt; stroke-dashoffset: 0; stroke-linejoin: miter; stroke-miterlimit: 4; fill: rgb(255,255,255); fill-rule: nonzero; opacity: 1; visibility: hidden;" vector-effect="non-scaling-stroke"  x="-540" y="-540" rx="0" ry="0" width="1080" height="1080" />
</g>
<g transform="matrix(9.06 0 0 9.06 561.94 739.64)"  >
<g style="" vector-effect="non-scaling-stroke"   >
		<g transform="matrix(1 0 0 1 2.61 -23.77)"  >
<polygon style="stroke: none; stroke-width: 1; stroke-dasharray: none; stroke-linecap: butt; stroke-dashoffset: 0; stroke-linejoin: miter; stroke-miterlimit: 4; fill: rgb(255,255,255); fill-rule: nonzero; opacity: 1;" vector-effect="non-scaling-stroke"  points="-29.88,-5.6 -33.93,-9.92 -31.81,-11.05 -31.33,-13.32 -32.26,-11.53 -34.94,-10.5 -37.93,-10.44 -42.51,-9.89 -44.77,-13.37 -42.35,-16.69 -42.35,-17.66 -37.65,-21.01 -38.16,-23.71 -35.95,-20.96 -35.41,-20.93 -34.94,-22.92 -33.34,-20.79 -32.63,-20.74 -29.97,-18.97 -21.78,-16.29 -15.14,-16.29 -9.63,-14.18 6.72,-11.59 15.14,-9.49 15.8,-8.76 31.17,1.04 39.43,1.04 41.05,-1.55 41.05,-6.41 43.48,-7.87 44.77,-5.12 42.35,-0.74 39.67,2.82 31.33,2.98 22.64,-1.08 26.48,9.46 29.72,11.32 32.79,21.77 31.33,23.71 26.96,23.71 27.61,21.6 29.23,20.79 27.93,14.15 22.27,12.29 16.44,6.38 12.59,5.29 11.7,4.2 10.4,2.29 10.93,4.52 11.38,9.26 13.56,13.14 8.58,20.79 1.54,20.79 2.63,18.49 5.79,18 8.83,12.29 5.67,9.62 3.66,3.07 4.29,2.17 3.41,2.39 -8.18,5.01 -10.31,4.95 -7.57,12.66 -11.34,20.79 -16.31,20.79 -16.31,18.85 -11.82,13.68 -15.5,9.1 -18.68,4.6 -18.82,1.37 -17.89,-0.9 -19.35,1 -19.83,4.72 -19.83,4.72 -22.43,8.65 -30.36,16.75 -30.69,20.79 -34.25,23.71 -40.4,23.71 -40.4,21.6 -34.9,19.98 -28.26,4.92 -27.68,0.74 -29.55,-1.55 " />
</g>
		<g transform="matrix(1 0 0 1 -16.55 39.66)" style=""  >
		<text xml:space="preserve" font-family="'Helvetica Neue', Helvetica, Arial-Unicode, Arial, Sans-serif" font-size="5" font-style="normal" font-weight="bold" style="stroke: none; stroke-width: 1; stroke-dasharray: none; stroke-linecap: butt; stroke-dashoffset: 0; stroke-linejoin: miter; stroke-miterlimit: 4; fill: rgb(255,255,255); fill-rule: nonzero; opacity: 1; white-space: pre;" ><tspan x="-30.84" y="1.57" >Created by m. turan ercan</tspan></text>
</g>
		<g transform="matrix(1 0 0 1 -21.14 44.66)" style=""  >
		<text xml:space="preserve" font-family="'Helvetica Neue', Helvetica, Arial-Unicode, Arial, Sans-serif" font-size="5" font-style="normal" font-weight="bold" style="stroke: none; stroke-width: 1; stroke-dasharray: none; stroke-linecap: butt; stroke-dashoffset: 0; stroke-linejoin: miter; stroke-miterlimit: 4; fill: rgb(255,255,255); fill-rule: nonzero; opacity: 1; white-space: pre;" ><tspan x="-26.25" y="1.57" >from the Noun Project</tspan></text>
</g>
</g>
</g>
</svg>